HIERARCHY
ROOT Hips
{
    OFFSET 0.0 0.0 0.0
    CHANNELS 6 Xposition Yposition Zposition Zrotation Xrotation Yrotation
    JOINT LeftHipJoint
    {
        OFFSET 0.1 0.0 0.0
        CHANNELS 3 Zrotation Xrotation Yrotation
        JOINT LeftUpLeg
        {
            OFFSET 111.6397187967939 0.0 0.0
            CHANNELS 3 Zrotation Xrotation Yrotation
            JOINT LeftLeg
            {
                OFFSET 0.0 0.0 -426.8534067483615
                CHANNELS 3 Zrotation Xrotation Yrotation
                JOINT LeftFoot
                {
                    OFFSET 0.0 0.0 -425.72792232755853
                    CHANNELS 3 Zrotation Xrotation Yrotation
                    End Site
                    {
                        OFFSET 0.0 -0.1 0.0
                    }
                }
            }
        }
    }
    JOINT LowerBack
    {
        OFFSET 0.0 0.0 0.1
        CHANNELS 3 Zrotation Xrotation Yrotation
        JOINT Spine
        {
            OFFSET 0.0 0.0 224.81714696681246
            CHANNELS 3 Zrotation Xrotation Yrotation
            JOINT Spine1
            {
                OFFSET 0.0 0.0 250.063927703673
                CHANNELS 3 Zrotation Xrotation Yrotation
                JOINT LeftShoulder
                {
                    OFFSET 0.1 0.0 0.0
                    CHANNELS 3 Zrotation Xrotation Yrotation
                    JOINT LeftArm
                    {
                        OFFSET 132.24616803973083 0.0 0.0
                        CHANNELS 3 Zrotation Xrotation Yrotation
                        JOINT LeftForeArm
                        {
                            OFFSET 259.19798484146725 0.0 0.0
                            CHANNELS 3 Zrotation Xrotation Yrotation
                            JOINT LeftHand
                            {
                                OFFSET 240.67178698780975 0.0 0.0
                                CHANNELS 3 Zrotation Xrotation Yrotation
                                End Site
                                {
                                    OFFSET 0.1 0.0 0.0
                                }
                            }
                        }
                    }
                }
                JOINT Neck
                {
                    OFFSET 0.0 0.0 0.1
                    CHANNELS 3 Zrotation Xrotation Yrotation
                    JOINT Neck1
                    {
                        OFFSET 0.0 0.0 91.33611814024131
                        CHANNELS 3 Zrotation Xrotation Yrotation
                        End Site
                        {
                            OFFSET 0.0 0.0 111.08537337374221
                        }
                    }
                }
                JOINT RightShoulder
                {
                    OFFSET -0.1 0.0 0.0
                    CHANNELS 3 Zrotation Xrotation Yrotation
                    JOINT RightArm
                    {
                        OFFSET -132.24616803973083 0.0 0.0
                        CHANNELS 3 Zrotation Xrotation Yrotation
                        JOINT RightForeArm
                        {
                            OFFSET -259.19798484146725 0.0 0.0
                            CHANNELS 3 Zrotation Xrotation Yrotation
                            JOINT RightHand
                            {
                                OFFSET -240.67178698780975 0.0 0.0
                                CHANNELS 3 Zrotation Xrotation Yrotation
                                End Site
                                {
                                    OFFSET -0.1 0.0 0.0
                                }
                            }
                        }
                    }
                }
            }
        }
    }
    JOINT RightHipJoint
    {
        OFFSET -0.1 0.0 0.0
        CHANNELS 3 Zrotation Xrotation Yrotation
        JOINT RightUpLeg
        {
            OFFSET -111.6397187967939 0.0 0.0
            CHANNELS 3 Zrotation Xrotation Yrotation
            JOINT RightLeg
            {
                OFFSET 0.0 0.0 -426.8534067483615
                CHANNELS 3 Zrotation Xrotation Yrotation
                JOINT RightFoot
                {
                    OFFSET 0.0 0.0 -425.72792232755853
                    CHANNELS 3 Zrotation Xrotation Yrotation
                    End Site
                    {
                        OFFSET 0.0 -0.1 0.0
                    }
                }
            }
        }
    }
}
MOTION
Frames: 4
Frame Time: 0.03333333333333333
0.0 0.0 879.6733546414041 31.74368577271639 -5.909227488846326 4.811965698111375 0.0 0.0 0.0 0.4897799279111761 -4.0228019677815725 -5.29940509892038 -2.3488751983982534 10.724388630575618 -1.5038188831462598 0.0 0.0 4.969616689786745e-17 0.0 0.0 0.0 -0.6073163347510702 5.011348405177186 -0.4249150534694047 6.900309721427409 5.354586465933143e-16 -1.0280105720029317e-15 0.0 0.0 -9.93923337957349e-17 -36.93469026772681 8.456483840450737 73.95149752663201 -42.934635863653135 -1.494073168345532e-14 2.0611311930636376e-14 0.0 0.0 0.0 0.0 0.0 -9.93923337957349e-17 -6.015793820302634 18.044094374654083 -14.41831251414575 0.0 0.0 -9.93923337957349e-17 54.21283101595835 -4.956272731558247 -65.28868982194956 37.660115678006434 0.0 0.0 0.0 0.0 0.0 0.0 0.0 0.0 -0.2567970503007046 2.102502294834218 -3.6922917151330656 -1.1382266428001548 6.066142480685423 0.35870126227030413 0.0 0.0 -1.987846675914698e-16
0.0 0.0 879.6733546414041 31.717643906595043 -5.740196776466505 4.775427854026272 0.0 0.0 3.9756933518293955e-16 0.5257752561602596 -4.0221153138861645 -5.311591843041792 -2.4021927895036788 10.509949932684794 -1.7135578146728088 0.0 0.0 0.0 0.0 0.0 3.9756933518293955e-16 -0.6667468404023009 5.1203342288261435 -0.03522722220940461 7.5890385367015805 9.785892005746666e-16 -2.6412520198641545e-16 0.0 0.0 -2.981770013872047e-16 -36.69970600382006 8.576254132533965 73.94534920659268 -43.342381946298836 -2.2216767951650522e-15 -3.0218561690705523e-15 0.0 0.0 -2.3854160110976376e-15 0.0 0.0 -2.981770013872047e-16 -6.664115926990786 18.088043313115058 -15.231681732165876 0.0 0.0 -2.981770013872047e-16 54.20693708007291 -6.867842987847845 -64.94417292048144 35.63910671656861 -3.893256183704299e-15 -1.211187044169975e-14 -6.3611093629270335e-15 0.0 0.0 0.0 0.0 3.9756933518293955e-16 -0.29831934195177173 2.2775551491009205 -3.6731300743883915 -1.1071118972050675 5.636571943726358 0.46042844785223946 0.0 0.0 9.93923337957349e-17
0.0 0.0 879.6733546414041 32.21718313969437 -5.812094805689539 5.27842236794216 0.0 0.0 0.0 0.5040251324889187 -4.13131350300244 -5.992937682030811 -2.349641815175433 10.132376523528128 -1.438274135787335 0.0 0.0 -4.969616689786745e-17 0.0 0.0 0.0 -0.6110820685136528 5.030814041774151 -0.15632692368126042 7.559715341278389 -4.0980901002847904e-16 -1.721432416527981e-16 1.034509288605506e-33 1.987846675914698e-16 -5.963540027744094e-16 -36.83778564245622 7.640311198795009 74.10280744741642 -42.160840633793605 -3.9427059728948457e-16 -1.6662751823764638e-14 0.0 0.0 1.5902773407317584e-15 1.034509288605506e-33 1.987846675914698e-16 -5.963540027744094e-16 -7.185212317154009 18.3780000020587 -16.124531306772656 1.034509288605506e-33 1.987846675914698e-16 -5.963540027744094e-16 57.356289392776105 -7.373456923339585 -63.81884479201031 33.339909999391324 6.093771340701981e-15 -1.824736467097962e-15 -6.3611093629270335e-15 -6.3611093629270335e-15 -3.1805546814635168e-15 0.0 0.0 0.0 -0.27065963697778045 2.212716715713233 -4.055290656283758 -0.9708764891848295 4.997288812621961 0.45923494122646963 0.0 0.0 4.969616689786745e-17
0.0 0.0 879.6733546414041 32.23860964150067 -5.35643817699067 5.722504311113914 0.0 0.0 0.0 0.4955893541182321 -4.198875184008905 -6.667454693373268 -2.3410601768720527 9.751323982083875 -1.5428427034492918 0.0 0.0 -4.969616689786745e-17 0.0 0.0 0.0 -0.5390664573284916 4.590546192005682 -0.26981472303446885 8.02455696761577 -3.4772532261777364e-17 -4.95743654961083e-16 0.0 0.0 -1.987846675914698e-16 -36.90215560526147 6.967273932015417 74.17208396976832 -40.63204069506155 -7.051170980524179e-16 -7.256097274116847e-15 0.0 0.0 7.951386703658792e-16 0.0 0.0 -1.987846675914698e-16 -7.884183502531881 18.885467496425655 -16.579070538733507 0.0 0.0 -1.987846675914698e-16 59.31165041215335 -8.699149759072538 -62.60165458264229 30.90097512367375 0.0 0.0 0.0 0.0 0.0 0.0 0.0 0.0 -0.20396797465681746 1.718648676137458 -4.240524114071326 -0.8897162112673247 4.599231418020114 0.23309863774044015 0.0 0.0 -9.93923337957349e-17
